<svg version="1.1" id="Layer_1" xmlns="http://www.w3.org/2000/svg" xmlns:xlink="http://www.w3.org/1999/xlink" x="0px" y="0px"
	 width="100%" viewBox="0 0 500 500" enable-background="new 0 0 500 500" xml:space="preserve">
<path fill="#000000" opacity="1.000000" stroke="none" 
	d="
M254.000000,501.000000 
	C170.666687,501.000000 87.833336,500.972931 5.000202,501.096008 
	C1.576010,501.101074 0.903036,500.423828 0.905301,497.000000 
	C1.013778,333.000092 1.013773,169.000122 0.905334,5.000241 
	C0.903071,1.576928 1.575812,0.903022 4.999882,0.905287 
	C168.999756,1.013774 332.999725,1.013761 496.999634,0.905353 
	C500.422668,0.903090 501.096985,1.575439 501.094727,4.999763 
	C500.986206,168.999649 500.986237,332.999603 501.094604,496.999512 
	C501.096893,500.422272 500.425507,501.101349 497.000275,501.096100 
	C416.166992,500.972198 335.333466,501.000000 254.000000,501.000000 
z"/>
<path fill="#F9F9F9" opacity="1.000000" stroke="none" 
	d="
M349.349701,293.246307 
	C344.873718,289.553833 343.102417,284.992218 343.008118,279.822235 
	C342.923218,275.165314 342.872589,270.471649 343.360168,265.852600 
	C343.706909,262.567719 342.580719,262.623169 340.104645,263.306763 
	C335.431519,264.596954 331.767883,266.670410 329.821594,271.614197 
	C327.515015,277.473297 324.342041,282.985229 321.813293,288.765198 
	C320.139374,292.591278 317.687134,292.402893 315.529510,289.914154 
	C314.091919,288.255920 313.049622,288.310883 311.415985,288.852631 
	C307.479126,290.158264 303.478424,291.287567 299.596588,292.737244 
	C296.962067,293.721130 294.397003,292.928223 293.599792,290.923553 
	C292.700867,288.663147 295.640991,287.596100 297.323517,287.284851 
	C301.299774,286.549194 301.340637,284.801483 300.653076,281.212769 
	C298.559662,270.286865 301.091309,259.693695 304.449280,249.348740 
	C306.395294,243.353668 308.859222,237.524551 311.162628,231.649200 
	C311.758240,230.130020 312.730408,229.483917 310.083466,228.288071 
	C306.602020,226.715240 307.311737,223.475021 310.992706,222.030731 
	C314.458923,220.670715 318.103485,220.234283 321.782166,220.412750 
	C324.284668,220.534149 325.411438,219.967087 324.975647,217.133499 
	C321.987030,197.702042 328.885742,181.512009 341.727692,167.438171 
	C357.571289,150.074738 369.452362,130.247742 379.383331,108.718689 
	C379.383331,110.522667 379.383301,112.326637 379.383331,114.130615 
	C379.383759,161.449219 379.415497,208.767883 379.327332,256.086334 
	C379.319977,260.036163 379.181274,261.893005 384.495209,260.531250 
	C404.343903,255.444748 426.532745,269.265198 431.557709,289.223267 
	C433.752319,297.939850 431.278778,302.733887 422.843964,306.111450 
	C402.270569,314.349762 377.453583,299.966614 374.058990,277.729340 
	C373.433655,273.632996 373.158325,269.445129 373.149994,265.298615 
	C373.080536,230.642883 373.037537,195.986603 373.201538,161.331497 
	C373.222992,156.798477 372.164490,156.358139 368.370239,158.277298 
	C358.046997,163.498825 348.278870,169.405441 340.906616,178.576996 
	C330.771271,191.185989 329.062805,205.551010 331.823212,220.987549 
	C333.047943,227.836182 334.632538,234.525482 337.305420,241.163742 
	C341.169525,235.977478 344.738220,230.779907 348.765656,225.966125 
	C350.590759,223.784653 352.031403,219.811279 356.125244,221.507965 
	C360.076385,223.145477 362.474518,228.353668 361.493134,232.795486 
	C360.095428,239.121674 358.555878,245.422241 356.857971,251.674286 
	C355.796967,255.581055 354.227112,259.393677 360.179535,260.637756 
	C360.607483,260.727203 360.872925,261.594391 361.327606,262.268494 
	C354.153229,262.077484 354.132782,262.073273 352.668823,269.197021 
	C351.121368,276.726990 350.193237,284.310547 350.918762,292.423767 
	C350.598206,293.008484 350.256775,293.187469 349.349701,293.246307 
z"/>
<path fill="#F3F3F3" opacity="1.000000" stroke="none" 
	d="
M134.325134,241.463257 
	C132.139679,247.224579 130.119385,252.637741 127.923058,258.522552 
	C130.274948,258.316956 131.970871,257.799042 133.511093,258.094025 
	C143.556824,260.018066 148.673035,255.928711 151.233292,246.010178 
	C153.203568,238.377213 157.554153,231.400223 161.637955,224.535065 
	C162.655182,222.825043 163.652222,219.762985 166.094955,220.985794 
	C168.577744,222.228653 169.932907,224.963226 168.571609,228.209763 
	C165.874023,234.643143 163.326569,241.139282 160.672897,247.591324 
	C159.598816,250.202789 158.286743,252.721680 157.313950,255.367630 
	C156.633270,257.218994 154.392075,259.346375 158.698334,260.452759 
	C162.102402,261.327301 162.702545,260.567017 163.363510,257.384613 
	C165.616104,246.538986 169.732574,236.392578 176.460693,227.484985 
	C178.045563,225.386734 180.049393,223.545837 182.094742,221.872986 
	C183.757858,220.512787 185.616379,219.580215 188.033615,220.871109 
	C190.602585,222.243042 189.840149,224.180313 188.233810,227.288925 
	C194.069565,224.286041 198.263168,223.920700 202.337433,227.631241 
	C205.238358,230.273224 207.156250,233.082474 207.046463,237.064056 
	C206.540024,255.431625 199.412369,271.321350 188.163345,285.392639 
	C184.609772,289.837769 179.671967,292.656738 173.140823,290.415192 
	C166.017624,287.970428 162.898361,282.867584 162.129761,275.894775 
	C161.839172,273.258545 162.068420,270.567169 162.014893,267.901855 
	C161.974396,265.885864 162.942291,263.375214 159.465881,263.062103 
	C156.588272,262.802948 154.206696,262.368896 152.831329,266.194641 
	C148.759842,277.519928 145.806488,289.053864 144.682648,301.830872 
	C140.796661,299.330963 139.442017,296.149353 139.398819,292.171906 
	C139.290909,282.239899 141.697235,272.753723 144.853287,263.056549 
	C138.247055,263.183197 132.424927,265.075623 126.584053,266.919037 
	C124.895332,267.451996 125.078720,268.890594 124.719482,270.116211 
	C122.789246,276.701538 121.862495,283.443420 121.448662,290.276947 
	C121.396591,291.136841 122.241333,292.421051 120.915733,292.828888 
	C119.625381,293.225861 118.708923,292.176819 118.088371,291.214569 
	C116.031433,288.025024 115.459694,284.424347 115.510284,280.705719 
	C115.530663,279.208527 115.719299,277.714325 115.803780,276.217163 
	C115.930222,273.976196 117.212677,271.314789 112.851303,271.352356 
	C111.810432,271.361328 109.318283,269.206543 109.307335,267.093231 
	C109.297966,265.284637 111.247086,264.272827 112.730835,263.838562 
	C117.596878,262.414307 118.902855,258.696106 120.143806,254.348114 
	C122.699707,245.392883 126.065567,236.690552 130.668396,228.558258 
	C132.028366,226.155487 133.027435,222.005798 136.810303,223.389297 
	C141.196320,224.993393 139.428619,228.723221 138.178940,231.857086 
	C136.948486,234.942719 135.719757,238.029068 134.325134,241.463257 
z"/>
<path fill="#F6F6F6" opacity="1.000000" stroke="none" 
	d="
M250.662750,239.753540 
	C242.297684,250.898788 231.300446,258.842926 218.926743,266.287201 
	C227.321411,269.633026 236.003586,270.914368 240.905914,279.276154 
	C237.870972,280.035461 235.855972,278.708618 233.739273,278.031006 
	C230.577530,277.018890 227.494812,275.691040 224.275116,274.941376 
	C213.111038,272.341919 214.362244,270.170563 213.251160,283.281647 
	C212.861420,287.880676 213.928909,292.427826 215.473801,297.406006 
	C210.065369,295.456970 208.510452,291.223358 207.189484,287.006622 
	C206.041809,283.343109 205.953979,279.468109 205.887207,275.630798 
	C205.844238,273.160431 206.095520,270.666626 203.606689,268.901855 
	C202.502640,268.118988 201.816742,266.313080 203.777786,265.834747 
	C207.460815,264.936462 207.327301,261.916626 207.973053,259.315338 
	C210.696503,248.344391 213.668274,237.457047 218.530228,227.194550 
	C219.381439,225.397842 220.313950,223.608246 221.457001,221.990692 
	C222.447739,220.588669 223.727310,218.086929 225.559723,219.486389 
	C227.184418,220.727234 230.481995,221.686127 229.432495,224.916229 
	C228.393936,228.112686 230.397690,226.938492 231.663193,226.577759 
	C232.420547,226.361847 233.008713,225.613632 233.737610,225.226425 
	C237.657913,223.143921 241.547836,220.072998 246.047745,223.877808 
	C252.694824,229.498093 253.385925,232.130844 250.662750,239.753540 
z"/>
<path fill="#F3F3F3" opacity="1.000000" stroke="none" 
	d="
M113.268417,225.793472 
	C117.710121,232.273468 117.332581,245.808914 112.767075,252.090683 
	C112.233498,252.824860 111.745956,254.087433 110.497658,253.318573 
	C109.476875,252.689850 108.869972,251.632263 109.054092,250.341034 
	C109.499664,247.216431 110.109726,244.109451 110.414436,240.972153 
	C110.735153,237.670044 110.835594,234.342453 110.922432,231.023117 
	C110.981499,228.765442 109.805092,228.166824 107.686256,228.785370 
	C104.362740,229.755615 101.628609,231.683517 99.559143,234.302856 
	C87.517410,249.544067 81.467224,266.667053 83.945801,286.261658 
	C84.775917,292.824280 87.014091,293.571808 92.219711,289.317383 
	C95.742981,286.437897 98.282951,282.725555 100.727089,278.942657 
	C102.241104,276.599335 103.309975,273.938477 105.526596,272.014618 
	C107.325348,280.158203 97.801773,295.515686 90.056099,297.081848 
	C83.817703,298.343262 75.944977,292.379883 74.081421,284.815369 
	C72.211517,277.225128 72.649338,269.536346 74.277893,262.032623 
	C76.624992,251.218231 80.960449,241.180710 87.787163,232.343002 
	C90.453583,228.891144 93.545334,225.908478 97.290199,223.617157 
	C104.130119,219.432083 107.322853,219.802338 113.268417,225.793472 
z"/>
<path fill="#F4F4F4" opacity="1.000000" stroke="none" 
	d="
M250.847473,240.174225 
	C252.672485,240.476898 252.633575,238.742096 253.288528,237.816101 
	C258.624756,230.271439 265.381042,224.573837 274.357544,221.926590 
	C287.336060,218.099136 296.183594,223.598587 298.967896,236.883881 
	C300.495819,244.174301 299.494324,251.161774 296.531067,257.807678 
	C290.530975,271.264465 281.692993,282.547485 269.774628,291.317261 
	C265.714172,294.304993 261.263672,296.474792 256.275360,297.427032 
	C251.065369,298.421631 247.068832,296.073486 245.156952,290.571899 
	C250.229843,292.951202 254.929260,292.549438 259.431641,288.955444 
	C272.099274,278.337585 281.953400,266.200256 288.731079,251.622589 
	C290.636230,247.524826 291.623138,243.249847 291.837677,238.649857 
	C292.130310,232.374969 289.751282,229.671677 281.876434,229.419052 
	C279.388672,229.339233 276.991699,230.314835 273.858398,230.937180 
	C265.081360,232.192139 260.382568,237.879944 255.911255,243.906540 
	C255.045609,245.073273 254.981201,246.803848 253.362991,247.486450 
	C250.663574,245.671448 250.802429,243.193787 251.324905,240.322250 
	C250.898315,240.121658 250.874695,240.169876 250.847473,240.174225 
z"/>
<path fill="#F2F2F2" opacity="1.000000" stroke="none" 
	d="
M259.034851,288.898834 
	C254.587234,288.804443 253.206375,285.801086 252.913239,282.057587 
	C252.492935,276.690125 253.555450,271.454498 255.217789,266.407532 
	C259.335175,253.906830 265.146057,242.236786 273.059601,231.279388 
	C273.136536,230.940338 273.049622,231.024078 272.994263,231.048126 
	C277.423859,230.390106 279.619720,232.421036 278.770782,236.602127 
	C278.270447,239.066147 277.007965,241.263809 275.755157,243.404770 
	C268.314819,256.119812 262.424286,269.377563 260.990448,284.264404 
	C260.848236,285.741028 260.412811,287.199463 259.203949,288.731232 
	C258.936584,289.034180 258.991516,288.935211 259.034851,288.898834 
z"/>
<path fill="#E8E8E8" opacity="1.000000" stroke="none" 
	d="
M243.104828,322.964874 
	C243.104874,318.338348 243.091522,314.204926 243.112244,310.071686 
	C243.119446,308.634644 242.736252,306.535187 244.565018,306.377808 
	C246.806503,306.184906 246.187561,308.420837 246.199066,309.754547 
	C246.260406,316.863373 246.252960,323.973175 246.201675,331.082153 
	C246.193100,332.270935 246.695160,334.145844 244.626709,334.019165 
	C242.794586,333.906952 243.141068,332.157043 243.118561,330.897827 
	C243.074249,328.418610 243.105072,325.938080 243.104828,322.964874 
z"/>
<path fill="#BFBFBF" opacity="1.000000" stroke="none" 
	d="
M297.389557,308.087494 
	C300.654785,304.858215 300.685272,307.622894 300.713348,309.639343 
	C300.810608,316.627289 300.756073,323.617432 300.745911,330.606720 
	C300.743958,331.965973 300.705353,333.597168 298.894806,333.520233 
	C297.087463,333.443481 297.260254,331.740601 297.258820,330.443695 
	C297.250793,323.121857 297.274689,315.800018 297.389557,308.087494 
z"/>
<path fill="#E9E9E9" opacity="1.000000" stroke="none" 
	d="
M204.042603,316.015320 
	C204.041245,322.492218 204.045456,328.471802 204.032959,334.451416 
	C204.030899,335.441742 204.074081,336.703003 202.816711,336.817902 
	C201.192551,336.966248 201.127182,335.566101 201.124954,334.404785 
	C201.106445,324.771057 201.105637,315.137207 201.126740,305.503479 
	C201.129288,304.342163 201.197983,302.957428 202.868637,303.165100 
	C204.171066,303.326935 204.022003,304.588196 204.029495,305.552094 
	C204.055328,308.873901 204.041397,312.196045 204.042603,316.015320 
z"/>
<path fill="#E9E9E9" opacity="1.000000" stroke="none" 
	d="
M207.169128,304.442200 
	C208.560074,302.548645 209.946060,302.095703 209.978836,304.664307 
	C210.105789,314.614960 210.034058,324.568146 210.039322,334.520386 
	C210.039886,335.598877 209.720734,336.763153 208.531418,336.569122 
	C207.181107,336.348816 207.098770,334.986755 207.101059,333.764923 
	C207.119080,324.144379 207.115067,314.523804 207.169128,304.442200 
z"/>
<path fill="#E9E9E9" opacity="1.000000" stroke="none" 
	d="
M216.042374,333.486877 
	C216.088272,335.134918 216.068146,336.563263 214.613922,336.648865 
	C213.663147,336.704926 213.102234,335.601715 213.104767,334.445862 
	C213.126358,324.645325 213.113419,314.844666 213.120651,305.044067 
	C213.121429,303.980011 213.366669,302.925323 214.686111,302.989532 
	C216.488800,303.077240 216.015640,304.593658 216.019897,305.630432 
	C216.057510,314.766479 216.042221,323.902740 216.042374,333.486877 
z"/>
<path fill="#E9E9E9" opacity="1.000000" stroke="none" 
	d="
M219.107376,319.997528 
	C219.108215,314.854950 219.099182,310.210602 219.117004,305.566345 
	C219.121338,304.436737 218.910568,303.008698 220.612686,302.985687 
	C222.431702,302.961060 222.018799,304.499756 222.022369,305.550385 
	C222.054382,315.004791 222.033905,324.459320 222.050125,333.913788 
	C222.052231,335.139191 221.937103,336.626282 220.585693,336.623749 
	C219.301437,336.621307 219.084778,335.180054 219.094772,333.931000 
	C219.130630,329.452850 219.107941,324.974243 219.107376,319.997528 
z"/>
<path fill="#E8E8E8" opacity="1.000000" stroke="none" 
	d="
M189.104828,319.033325 
	C189.109985,315.555664 189.118805,312.566986 189.118347,309.578278 
	C189.118164,308.481110 189.520706,307.516266 190.668030,307.466949 
	C191.950348,307.411774 192.213135,308.508759 192.213638,309.557861 
	C192.217117,316.697296 192.205582,323.836731 192.178665,330.976105 
	C192.175430,331.834137 191.927368,332.716248 190.940475,332.837982 
	C189.649979,332.997070 189.182739,331.999176 189.162140,330.977203 
	C189.085251,327.160065 189.115051,323.340790 189.104828,319.033325 
z"/>
<path fill="#BEBEBE" opacity="1.000000" stroke="none" 
	d="
M315.240173,328.459900 
	C315.239197,322.398773 315.214783,316.782135 315.256653,311.166016 
	C315.267090,309.765228 314.785187,307.729126 316.817413,307.569275 
	C318.923706,307.403595 318.734100,309.416351 318.742859,310.851837 
	C318.779144,316.798431 318.771820,322.745422 318.743042,328.692108 
	C318.736725,330.002777 318.734467,331.681885 317.063202,331.788849 
	C315.261810,331.904144 315.315887,330.222076 315.240173,328.459900 
z"/>
<path fill="#D2D2D2" opacity="1.000000" stroke="none" 
	d="
M321.906433,308.335754 
	C324.381531,306.614624 324.646545,308.223114 324.658081,309.865356 
	C324.703369,316.320312 324.691010,322.775848 324.662109,329.230988 
	C324.657074,330.359680 324.679108,331.842529 323.083466,331.763153 
	C321.475861,331.683228 321.724701,330.174500 321.723419,329.059875 
	C321.715576,322.273712 321.734558,315.487579 321.906433,308.335754 
z"/>
<path fill="#E8E8E8" opacity="1.000000" stroke="none" 
	d="
M312.895203,312.447052 
	C312.894501,318.209991 312.897278,323.527069 312.890686,328.844116 
	C312.889008,330.207489 312.795410,331.801727 311.018768,331.675507 
	C309.472229,331.565674 309.784302,329.980591 309.780548,328.868195 
	C309.761505,323.218872 309.694916,317.567719 309.824127,311.921295 
	C309.857513,310.461700 308.781952,307.873993 311.076569,307.770020 
	C313.857147,307.644043 312.574066,310.417969 312.895203,312.447052 
z"/>
<path fill="#BEBEBE" opacity="1.000000" stroke="none" 
	d="
M294.761169,319.990479 
	C294.747284,323.472870 294.789948,326.471954 294.691315,329.466339 
	C294.652863,330.633026 294.319550,331.978394 292.766052,331.819031 
	C291.646881,331.704224 291.265289,330.624176 291.263672,329.562561 
	C291.253662,322.901581 291.255463,316.240570 291.279266,309.579651 
	C291.283142,308.496674 291.724884,307.547302 292.935181,307.504974 
	C294.192139,307.461029 294.650085,308.512146 294.679657,309.515656 
	C294.777710,312.843414 294.744232,316.175079 294.761169,319.990479 
z"/>
<path fill="#E8E8E8" opacity="1.000000" stroke="none" 
	d="
M270.228271,319.981750 
	C270.225037,323.451141 270.237640,326.440063 270.209686,329.428589 
	C270.200439,330.417633 270.182037,331.576843 268.897461,331.726959 
	C267.649231,331.872833 267.144012,330.893341 267.139191,329.836060 
	C267.108856,323.195282 267.128204,316.554169 267.156036,309.913269 
	C267.159790,309.016724 267.604279,308.216095 268.526917,308.118347 
	C269.832214,307.980072 270.193573,308.945953 270.202545,310.037079 
	C270.228516,313.191650 270.222046,316.346436 270.228271,319.981750 
z"/>
<path fill="#E8E8E8" opacity="1.000000" stroke="none" 
	d="
M234.044540,326.840942 
	C234.043686,328.975281 234.032639,330.636261 234.045700,332.296997 
	C234.054001,333.351410 233.940750,334.482605 232.608261,334.384369 
	C231.484695,334.301483 231.099716,333.340027 231.103058,332.197296 
	C231.127350,323.893097 231.104858,315.588776 231.126816,307.284576 
	C231.130020,306.072479 231.384247,304.796295 233.000046,305.027588 
	C234.386642,305.226044 234.019882,306.527740 234.024780,307.433685 
	C234.058899,313.744781 234.043839,320.056183 234.044540,326.840942 
z"/>
<path fill="#E8E8E8" opacity="1.000000" stroke="none" 
	d="
M225.104828,328.685303 
	C225.105042,321.575043 225.086792,314.929138 225.121979,308.283508 
	C225.128571,307.036407 224.689331,305.134918 226.483231,305.055573 
	C228.951065,304.946411 227.980225,307.192505 227.996613,308.427826 
	C228.093567,315.736938 228.112579,323.049164 227.984177,330.357300 
	C227.959961,331.736084 229.153381,334.356781 226.558411,334.261169 
	C224.277634,334.177155 225.357880,331.645721 225.112579,330.145355 
	C225.059677,329.821686 225.104843,329.482025 225.104828,328.685303 
z"/>
<path fill="#D2D2D2" opacity="1.000000" stroke="none" 
	d="
M276.286102,328.025024 
	C276.287201,329.528259 275.997162,330.553894 274.690186,330.396729 
	C273.502014,330.253845 273.310577,329.207611 273.314056,328.134705 
	C273.331299,322.817047 273.317932,317.499298 273.321991,312.181580 
	C273.322876,311.027802 273.218048,309.596222 274.798309,309.568451 
	C276.468231,309.539032 276.281189,311.014526 276.282959,312.163208 
	C276.290924,317.314758 276.286835,322.466309 276.286102,328.025024 
z"/>
<path fill="#FDFDFD" opacity="1.000000" stroke="none" 
	d="
M197.655396,333.853271 
	C194.992554,335.132294 195.006470,333.499756 195.004440,331.947266 
	C194.994049,323.983704 195.009552,316.020142 194.989395,308.056641 
	C194.986252,306.817688 195.115616,305.370850 196.497940,305.369080 
	C197.879684,305.367310 198.016251,306.812317 198.010025,308.051758 
	C197.967484,316.512146 197.952423,324.972626 197.655396,333.853271 
z"/>
<path fill="#D2D2D2" opacity="1.000000" stroke="none" 
	d="
M306.286926,326.125824 
	C306.146942,327.590424 306.692200,329.117645 304.897552,329.177094 
	C303.182404,329.233887 303.318817,327.853485 303.318542,326.684479 
	C303.317505,322.191803 303.318451,317.699097 303.319092,313.206421 
	C303.319275,312.034119 303.229553,310.633759 304.850800,310.628571 
	C306.593323,310.623016 306.270844,312.133423 306.277161,313.242126 
	C306.300781,317.401855 306.286865,321.561859 306.286926,326.125824 
z"/>
<path fill="#E8E8E8" opacity="1.000000" stroke="none" 
	d="
M237.104828,315.394196 
	C237.116486,313.950592 237.072586,312.950134 237.156006,311.960419 
	C237.233536,311.040649 237.829865,310.444092 238.750458,310.460266 
	C239.760330,310.478027 240.172272,311.257690 240.177811,312.146515 
	C240.210892,317.458496 240.214203,322.770782 240.195953,328.082886 
	C240.192947,328.958069 239.857391,329.772766 238.821457,329.776215 
	C237.570999,329.780396 237.132370,328.882416 237.124268,327.795410 
	C237.094543,323.811127 237.107758,319.826538 237.104828,315.394196 
z"/>
<path fill="#E8E8E8" opacity="1.000000" stroke="none" 
	d="
M182.955460,315.192078 
	C183.609726,312.710938 181.508301,308.930267 184.330338,308.876373 
	C187.284363,308.819946 185.706680,312.580078 185.813812,314.600555 
	C186.066910,319.373047 185.884750,324.168091 185.901016,328.953949 
	C185.905106,330.158386 185.844620,331.643677 184.466980,331.666748 
	C183.136902,331.689026 182.932526,330.278015 182.942490,329.029480 
	C182.978012,324.573944 182.955811,320.117889 182.955460,315.192078 
z"/>
<path fill="#E8E8E8" opacity="1.000000" stroke="none" 
	d="
M166.811615,308.695557 
	C168.796616,315.663727 167.486588,322.560730 167.854477,329.403503 
	C167.904800,330.339569 167.410049,330.998047 166.449005,331.073822 
	C165.726700,331.130798 165.059174,330.673096 165.069931,329.970123 
	C165.177414,322.932953 164.305939,315.872345 165.552200,308.866760 
	C165.580551,308.707336 166.125671,308.639832 166.811615,308.695557 
z"/>
<path fill="#BEBEBE" opacity="1.000000" stroke="none" 
	d="
M282.761108,319.096588 
	C282.760193,321.542236 282.762726,323.532898 282.757263,325.523529 
	C282.753479,326.896729 282.747986,328.381348 280.808319,328.251862 
	C279.220123,328.145874 279.246826,326.813660 279.244476,325.633575 
	C279.237122,321.984070 279.226807,318.334473 279.248474,314.685089 
	C279.256165,313.386383 279.021790,311.768494 280.987854,311.755981 
	C282.957764,311.743439 282.728058,313.354950 282.753571,314.660400 
	C282.779510,315.986969 282.760498,317.314484 282.761108,319.096588 
z"/>
<path fill="#FDFDFD" opacity="1.000000" stroke="none" 
	d="
M162.162109,333.623810 
	C161.706573,335.184723 160.332336,337.368164 160.196152,334.786835 
	C159.656509,324.558197 159.974335,314.284363 159.974335,304.027283 
	C160.706375,304.018707 161.438416,304.010162 162.170456,304.001587 
	C162.170456,313.720367 162.170456,323.439117 162.162109,333.623810 
z"/>
<path fill="#D2D2D2" opacity="1.000000" stroke="none" 
	d="
M249.321899,325.219116 
	C249.319290,321.489777 249.331879,318.178070 249.315460,314.866516 
	C249.310059,313.777313 249.516006,312.836945 250.820633,312.783569 
	C252.246506,312.725220 252.285797,313.782471 252.284988,314.816162 
	C252.282166,318.458923 252.283585,322.101715 252.275925,325.744476 
	C252.274063,326.622559 252.054703,327.490082 251.042404,327.556793 
	C249.792908,327.639130 249.396469,326.729523 249.321899,325.219116 
z"/>
<path fill="#BFBFBF" opacity="1.000000" stroke="none" 
	d="
M327.247040,316.414185 
	C327.365601,314.693817 327.144135,313.042542 329.046448,313.067780 
	C330.963287,313.093201 330.717255,314.762299 330.736633,316.023987 
	C330.782196,318.988861 330.748047,321.954987 330.744232,324.920593 
	C330.742615,326.172821 330.507507,327.321716 328.923157,327.259216 
	C327.333496,327.196472 327.253326,325.969604 327.251373,324.765533 
	C327.247162,322.129395 327.247314,319.493286 327.247040,316.414185 
z"/>
<path fill="#E8E8E8" opacity="1.000000" stroke="none" 
	d="
M171.104858,325.542908 
	C171.106018,321.111847 171.110947,317.128296 171.106232,313.144714 
	C171.104767,311.911652 171.203049,310.690247 172.876450,310.869080 
	C174.291412,311.020264 174.027023,312.241089 174.032288,313.172638 
	C174.056686,317.488037 174.090836,321.804474 174.013794,326.118622 
	C173.992722,327.299438 174.734192,329.240601 172.774475,329.335358 
	C170.404968,329.449982 171.313309,327.304810 171.104858,325.542908 
z"/>
<path fill="#E8E8E8" opacity="1.000000" stroke="none" 
	d="
M177.104828,319.077698 
	C177.629700,316.517883 175.892334,312.558746 178.461014,312.618958 
	C181.588455,312.692261 179.591980,316.599976 179.973648,318.780121 
	C180.311752,320.711304 180.097351,322.750488 180.022552,324.738068 
	C179.983307,325.780426 180.538193,327.387329 178.766891,327.433441 
	C176.752014,327.485809 177.139633,325.775543 177.113602,324.511627 
	C177.079437,322.853668 177.104980,321.194489 177.104828,319.077698 
z"/>
<path fill="#D2D2D2" opacity="1.000000" stroke="none" 
	d="
M288.285645,317.435333 
	C287.844788,320.170776 289.310089,322.760345 287.312042,324.819214 
	C287.139313,324.997192 286.162292,324.805603 286.022186,324.540710 
	C284.645050,321.936829 285.538239,319.114960 285.379608,316.387604 
	C285.324829,315.445709 285.919739,314.901611 286.912354,314.934143 
	C288.341095,314.980957 288.255859,316.039337 288.285645,317.435333 
z"/>
<path fill="#D2D2D2" opacity="1.000000" stroke="none" 
	d="
M264.285767,322.148071 
	C264.087921,324.518707 263.078186,324.633667 261.653656,323.600494 
	C261.445831,323.449768 261.326080,323.011841 261.355347,322.726257 
	C261.584351,320.490692 260.652863,318.136658 261.964752,316.036743 
	C262.128998,315.773834 263.075867,315.635895 263.315582,315.841583 
	C265.270599,317.519135 263.869781,319.806580 264.285767,322.148071 
z"/>
<path fill="#D2D2D2" opacity="1.000000" stroke="none" 
	d="
M258.089539,316.393982 
	C258.262115,318.535004 258.262787,320.348267 258.289429,322.161133 
	C258.305023,323.224274 258.200867,324.203583 256.801727,324.155975 
	C255.472626,324.110718 254.948654,323.018860 255.387161,322.130402 
	C256.363068,320.153076 252.594208,316.146973 258.089539,316.393982 
z"/>
<path fill="#BFBFBF" opacity="1.000000" stroke="none" 
	d="
M336.752258,318.971588 
	C336.416748,320.756256 337.731171,322.896454 335.150787,323.257416 
	C333.705383,323.459625 333.052704,322.489838 333.274536,321.134399 
	C333.562439,319.375153 332.176666,316.891205 334.762146,316.079620 
	C336.587769,315.506592 336.691528,317.236206 336.752258,318.971588 
z"/>
<path fill="#BFBFBF" opacity="1.000000" stroke="none" 
	d="
M348.882996,293.431519 
	C349.146851,293.102173 349.509583,293.078033 350.406006,292.941772 
	C351.736969,293.583588 353.072693,294.783417 352.156097,295.489624 
	C350.551239,296.726013 350.153625,294.211121 348.882996,293.431519 
z"/>
<path fill="#050505" opacity="1.000000" stroke="none" 
	d="
M319.942688,230.881897 
	C320.380219,229.217377 320.766602,227.948013 321.070953,226.659256 
	C321.559540,224.590805 323.372345,224.330063 324.925385,224.098511 
	C326.868073,223.808838 326.607574,225.712265 327.053619,226.847229 
	C328.447632,230.394577 329.621429,234.047318 331.272919,237.469894 
	C333.306427,241.684265 336.789856,245.447281 332.374939,250.354080 
	C329.360046,253.704849 329.055176,259.054840 324.257141,261.276154 
	C321.954407,262.342255 319.771301,263.951080 322.354645,267.026520 
	C323.437988,268.316193 321.932953,269.438568 321.469238,270.552826 
	C320.322632,273.308075 318.939240,275.964172 317.769043,278.710449 
	C316.665375,281.300659 315.712433,283.955139 314.665588,286.652405 
	C313.563110,286.240692 312.219452,285.190338 311.260956,285.468262 
	C303.987396,287.577362 305.665436,282.634613 305.992126,278.901184 
	C307.133118,265.860443 311.252502,253.602402 315.965698,241.506317 
	C317.291016,238.104950 318.559937,234.681625 319.942688,230.881897 
z"/>
<path fill="#141414" opacity="1.000000" stroke="none" 
	d="
M341.979950,254.291473 
	C341.792358,248.540329 346.079865,245.423233 348.693512,241.339401 
	C348.018127,246.750900 347.099182,252.052795 344.371094,256.980347 
	C342.985840,256.465027 342.472748,255.561172 341.979950,254.291473 
z"/>
<path fill="#414141" opacity="1.000000" stroke="none" 
	d="
M341.527100,253.886810 
	C343.017853,254.399750 343.713379,255.158264 343.980042,256.629456 
	C342.376831,257.833221 340.642944,257.879639 338.588379,257.718689 
	C338.923004,255.973724 339.010712,254.297546 341.527100,253.886810 
z"/>
<path fill="#BFBFBF" opacity="1.000000" stroke="none" 
	d="
M351.625977,249.044525 
	C352.156677,251.682404 351.488312,254.095306 349.626251,256.184479 
	C349.084198,253.596924 349.522247,251.209152 351.625977,249.044525 
z"/>
<path fill="#C9C9C9" opacity="1.000000" stroke="none" 
	d="
M348.012573,268.109924 
	C347.991699,268.760345 348.030060,269.112396 347.921753,269.411224 
	C347.797821,269.753143 347.443878,270.559631 347.187164,269.686218 
	C346.936005,268.831818 347.275391,267.803802 347.355560,266.851990 
	C347.462982,266.865021 347.641663,266.844727 347.665924,266.896698 
	C347.800415,267.184082 347.897247,267.489075 348.012573,268.109924 
z"/>
<path fill="#BEBEBE" opacity="1.000000" stroke="none" 
	d="
M308.375305,248.672348 
	C309.195068,249.647888 309.180084,250.658279 308.120178,251.567596 
	C307.368835,250.589493 308.141449,249.699280 308.375305,248.672348 
z"/>
<path fill="#C9C9C9" opacity="1.000000" stroke="none" 
	d="
M303.979797,268.726349 
	C303.761566,269.330811 303.879028,270.636505 303.195496,269.481598 
	C302.884003,268.955353 302.271729,267.564117 303.744751,267.067474 
	C303.825775,267.518951 303.906799,267.970459 303.979797,268.726349 
z"/>
<path fill="#C9C9C9" opacity="1.000000" stroke="none" 
	d="
M304.942688,263.553284 
	C303.411774,264.360992 304.184326,263.093719 304.032837,262.652344 
	C303.941498,262.386261 304.045288,261.616821 304.672272,261.996307 
	C304.937622,262.156891 304.892853,262.829803 304.942688,263.553284 
z"/>
<path fill="#BFBFBF" opacity="1.000000" stroke="none" 
	d="
M351.967041,248.969910 
	C352.007538,248.152252 351.402069,246.814651 352.532715,246.789032 
	C353.302307,246.771576 352.909515,248.005615 352.313446,248.861572 
	C352.043060,249.031052 351.991608,248.991196 351.967041,248.969910 
z"/>
<path fill="#BFBFBF" opacity="1.000000" stroke="none" 
	d="
M353.284332,244.259369 
	C353.171722,243.561386 352.677368,242.587860 353.676941,242.863281 
	C354.169739,242.999069 354.083130,243.983566 353.284332,244.259369 
z"/>
<path fill="#BEBEBE" opacity="1.000000" stroke="none" 
	d="
M310.947021,242.395599 
	C310.860626,242.951233 310.644928,243.487717 310.603607,243.474609 
	C309.765137,243.208588 310.040070,242.592270 310.224091,242.033249 
	C310.261139,241.920700 310.472382,241.764877 310.553375,241.790009 
	C310.689606,241.832245 310.785828,242.003540 310.947021,242.395599 
z"/>
<path fill="#BEBEBE" opacity="1.000000" stroke="none" 
	d="
M309.691406,245.581390 
	C309.803833,246.102188 309.952667,246.622711 309.327972,246.398911 
	C309.279694,246.381622 309.455078,245.739838 309.691406,245.581390 
z"/>
<path fill="#C9C9C9" opacity="1.000000" stroke="none" 
	d="
M348.162659,264.016052 
	C348.366394,263.796906 348.579468,263.781494 348.785431,263.812805 
	C348.808746,263.816345 348.838684,264.103180 348.785706,264.223511 
	C348.604065,264.636261 348.382416,264.632385 348.162659,264.016052 
z"/>
<path fill="#040404" opacity="1.000000" stroke="none" 
	d="
M200.921494,232.732819 
	C201.674011,249.603745 195.966843,264.142792 187.489532,277.792145 
	C185.185776,281.501434 181.975433,284.333923 177.843613,286.185242 
	C174.504349,287.681488 172.815338,286.674438 171.957397,283.434204 
	C169.949570,275.851105 170.443726,268.242035 171.904434,260.661652 
	C172.845200,255.779510 174.025986,250.945923 176.244568,246.421127 
	C177.573746,246.602646 176.906967,247.557755 176.991013,248.159103 
	C177.264999,250.119629 178.060577,251.918533 180.117172,252.153534 
	C182.176834,252.388901 182.627350,250.329941 183.262573,248.852570 
	C186.187225,242.050552 189.639862,235.621750 195.989441,231.342545 
	C197.767700,230.144119 199.890823,228.680008 200.921494,232.732819 
z"/>
<path fill="#BEBEBE" opacity="1.000000" stroke="none" 
	d="
M130.384399,242.430832 
	C128.304810,247.957306 126.394691,253.136749 124.484566,258.316193 
	C124.029068,258.139587 123.573563,257.962982 123.118065,257.786377 
	C125.378624,246.829514 130.241882,236.874237 135.351242,227.013657 
	C135.830460,227.195755 136.309692,227.377838 136.788910,227.559937 
	C134.710556,232.401230 132.632217,237.242523 130.384399,242.430832 
z"/>
<path fill="#BFBFBF" opacity="1.000000" stroke="none" 
	d="
M155.305573,243.279419 
	C156.611938,239.901947 157.839340,236.917206 160.130814,234.458359 
	C159.904587,241.884796 153.712967,247.239487 153.256760,254.598297 
	C150.530029,250.312027 153.930389,247.162369 155.305573,243.279419 
z"/>
<path fill="#BFBFBF" opacity="1.000000" stroke="none" 
	d="
M145.946716,273.350159 
	C146.994156,278.451965 144.088882,282.638916 142.791275,287.244659 
	C142.853363,282.429443 143.624939,277.767151 145.946716,273.350159 
z"/>
<path fill="#ACACAC" opacity="1.000000" stroke="none" 
	d="
M167.298950,261.785889 
	C168.892975,266.167419 167.600861,269.708466 164.989792,274.523224 
	C165.448196,269.389069 165.777039,265.706146 166.128387,261.589478 
	C166.612152,260.989929 167.012466,261.073395 167.298950,261.785889 
z"/>
<path fill="#C9C9C9" opacity="1.000000" stroke="none" 
	d="
M167.523376,261.885498 
	C167.037537,261.870453 166.819000,261.616211 166.375671,261.258850 
	C167.442719,258.703125 166.291336,255.263367 169.667435,252.740311 
	C169.422714,256.322876 169.482101,259.141144 167.523376,261.885498 
z"/>
<path fill="#BFBFBF" opacity="1.000000" stroke="none" 
	d="
M148.741760,263.766235 
	C150.324875,267.075989 148.304993,269.196747 146.117294,272.545166 
	C146.345871,268.624542 147.069138,266.079437 148.741760,263.766235 
z"/>
<path fill="#C9C9C9" opacity="1.000000" stroke="none" 
	d="
M170.362335,248.957764 
	C170.160156,246.373856 170.604736,243.891510 173.505219,241.731506 
	C173.444992,244.973694 172.947708,247.259171 170.362335,248.957764 
z"/>
<path fill="#BFBFBF" opacity="1.000000" stroke="none" 
	d="
M119.015274,273.172485 
	C119.298752,272.051056 119.539948,270.359985 120.486694,272.013519 
	C121.003601,272.916321 120.035927,274.669159 119.709366,276.169128 
	C118.570114,275.343445 119.187256,274.344452 119.015274,273.172485 
z"/>
<path fill="#C9C9C9" opacity="1.000000" stroke="none" 
	d="
M170.032898,249.022705 
	C170.296005,249.864380 171.278442,250.637360 170.286179,251.540482 
	C170.145538,251.668488 169.632156,251.614532 169.476761,251.459213 
	C168.807663,250.790466 169.029175,250.043304 169.698242,249.146545 
	C169.962708,248.974060 170.009369,249.006683 170.032898,249.022705 
z"/>
<path fill="#000000" opacity="1.000000" stroke="none" 
	d="
M189.253189,226.072174 
	C189.275681,227.380951 188.559280,228.497604 187.646225,227.600723 
	C186.890350,226.858307 188.172012,226.197098 189.253189,226.072174 
z"/>
<path fill="#BFBFBF" opacity="1.000000" stroke="none" 
	d="
M152.316315,256.341644 
	C152.175186,256.528809 151.922958,256.558960 151.670746,256.589142 
	C151.848907,256.454315 152.027084,256.319458 152.316315,256.341644 
z"/>
<path fill="#0A0A0A" opacity="1.000000" stroke="none" 
	d="
M227.334808,243.360413 
	C231.577393,237.915451 236.318954,233.760223 243.886154,231.530197 
	C238.388489,243.508118 229.331848,250.571518 219.514679,256.997986 
	C220.795959,251.779953 224.156128,247.823959 227.334808,243.360413 
z"/>
<path fill="#BFBFBF" opacity="1.000000" stroke="none" 
	d="
M218.047089,242.998108 
	C217.079285,244.293991 217.420227,245.934967 215.096039,247.105942 
	C215.684692,242.144684 217.259048,238.374390 219.887207,234.949219 
	C220.356583,234.337509 220.993713,234.069031 221.507416,234.653107 
	C222.229462,235.474167 222.178574,236.594452 221.577209,237.408844 
	C220.335678,239.090149 218.635162,240.454376 218.047089,242.998108 
z"/>
<path fill="#BFBFBF" opacity="1.000000" stroke="none" 
	d="
M225.634247,225.014740 
	C226.039124,226.947678 225.638260,228.683365 223.623947,230.003662 
	C222.551559,227.520981 223.477844,226.126495 225.634247,225.014740 
z"/>
<path fill="#C9C9C9" opacity="1.000000" stroke="none" 
	d="
M245.335052,238.974915 
	C244.967606,237.583969 244.908127,236.173187 246.299408,235.446701 
	C246.512405,235.335480 247.261627,235.777023 247.423233,236.121994 
	C248.203384,237.787277 247.130707,238.516937 245.335052,238.974915 
z"/>
<path fill="#BFBFBF" opacity="1.000000" stroke="none" 
	d="
M212.957794,255.649353 
	C213.206406,257.501862 213.379990,259.015381 213.642258,261.302032 
	C211.067123,259.079224 212.095474,257.027222 212.268860,255.133392 
	C212.274490,255.071991 212.478973,254.958206 212.525238,254.984421 
	C212.662048,255.061935 212.765991,255.197495 212.957794,255.649353 
z"/>
<path fill="#C9C9C9" opacity="1.000000" stroke="none" 
	d="
M245.057556,239.068329 
	C244.918686,239.285110 244.674545,240.043152 244.733734,238.991806 
	C244.888977,238.903870 245.003784,239.011078 245.057556,239.068329 
z"/>
<path fill="#C9C9C9" opacity="1.000000" stroke="none" 
	d="
M247.403656,233.610229 
	C247.345322,233.524796 247.563797,233.479919 247.563797,233.479919 
	C247.563797,233.479919 247.461990,233.695648 247.403656,233.610229 
z"/>
<path fill="#BFBFBF" opacity="1.000000" stroke="none" 
	d="
M226.010803,225.015274 
	C226.093399,224.981094 226.164948,224.933289 226.104248,224.932877 
	C225.972015,224.980270 225.999771,225.001648 226.010803,225.015274 
z"/>
<path fill="#ACACAC" opacity="1.000000" stroke="none" 
	d="
M79.596924,259.066101 
	C80.130615,260.061676 80.176109,261.039001 80.037903,262.589172 
	C78.340805,267.901550 78.179230,272.830170 77.552803,277.717316 
	C74.852928,271.268280 76.789268,265.144806 79.596924,259.066101 
z"/>
<path fill="#ACACAC" opacity="1.000000" stroke="none" 
	d="
M79.895119,258.904175 
	C80.132492,258.346436 80.326988,257.683777 80.766792,257.395935 
	C81.188576,257.119873 81.730637,257.571960 81.594711,258.099548 
	C81.505257,258.446716 80.991669,258.684570 80.376556,259.027863 
	C80.085106,259.084351 79.959496,258.963104 79.895119,258.904175 
z"/>
<path fill="#ACACAC" opacity="1.000000" stroke="none" 
	d="
M80.158463,262.855316 
	C80.387291,262.964966 80.512413,263.174500 80.637527,263.384064 
	C80.445885,263.415955 80.254234,263.447845 79.958389,263.320862 
	C79.854187,263.161987 80.054749,262.955231 80.158463,262.855316 
z"/>
<path fill="#000000" opacity="1.000000" stroke="none" 
	d="
M259.210815,289.343689 
	C259.606720,275.586334 263.351929,263.030304 269.774170,251.220825 
	C272.300903,246.574554 274.644989,241.828644 277.054291,237.118942 
	C278.917603,233.476562 277.624664,231.545990 273.328949,231.071198 
	C276.819305,227.501678 284.247589,226.964905 289.610657,229.454590 
	C294.675934,231.806061 293.687836,236.103745 293.487946,240.148117 
	C293.315186,243.644409 292.407227,247.048538 290.973114,250.226791 
	C283.838013,266.039276 274.113342,279.811981 259.210815,289.343689 
z"/>
<path fill="#C9C9C9" opacity="1.000000" stroke="none" 
	d="
M280.796661,273.710999 
	C283.570923,270.830048 283.825592,266.440216 287.966431,264.626434 
	C288.054443,269.883423 284.029083,272.513397 281.540222,275.975067 
	C281.183533,276.471191 280.369995,276.831848 280.149811,275.841705 
	C280.025574,275.282806 280.418060,274.608978 280.796661,273.710999 
z"/>
<path fill="#BEBEBE" opacity="1.000000" stroke="none" 
	d="
M258.278625,269.788239 
	C258.421967,264.101318 261.561462,259.357910 263.448730,254.101990 
	C263.960907,254.304337 264.473083,254.506683 264.985260,254.709015 
	C262.882843,259.695648 260.780426,264.682312 258.278625,269.788239 
z"/>
<path fill="#C9C9C9" opacity="1.000000" stroke="none" 
	d="
M268.375671,245.975891 
	C268.468933,243.899826 268.937500,241.805832 271.642517,240.996567 
	C271.573761,243.068954 271.001984,245.045441 268.375671,245.975891 
z"/>
<path fill="#C9C9C9" opacity="1.000000" stroke="none" 
	d="
M268.099670,246.066681 
	C269.276276,248.610962 267.230103,249.935806 266.108734,252.809448 
	C264.332001,249.334412 266.799866,248.055664 267.628784,246.127869 
	C267.901031,245.926102 268.032166,246.021667 268.099670,246.066681 
z"/>
<path fill="#C9C9C9" opacity="1.000000" stroke="none" 
	d="
M271.984253,240.988953 
	C270.670288,238.497742 272.212982,237.361938 274.185669,235.962952 
	C274.443634,238.137009 273.207062,239.291931 272.283875,240.836823 
	C272.013702,241.009323 271.994843,240.996262 271.984253,240.988953 
z"/>
<path fill="#BEBEBE" opacity="1.000000" stroke="none" 
	d="
M256.082336,275.544739 
	C256.576202,274.496094 256.811554,275.064301 256.900513,275.433472 
	C257.009155,275.884155 256.998688,276.382385 256.942810,276.848419 
	C256.891205,277.279114 256.711548,277.694458 256.285004,279.155396 
	C256.153381,277.356049 256.098236,276.601715 256.082336,275.544739 
z"/>
<path fill="#BEBEBE" opacity="1.000000" stroke="none" 
	d="
M258.092590,270.085327 
	C257.966827,270.885498 257.771118,271.624939 257.575409,272.364410 
	C256.766907,271.733551 257.090088,271.014465 257.646667,270.101440 
	C257.879242,269.907532 258.022675,270.024658 258.092590,270.085327 
z"/>
</svg>